<svg xmlns="http://www.w3.org/2000/svg" width="136" height="38" viewBox="0 0 136 38" fill="none"><path d="M14.227 0C10.7258 0 7.56612 1.49178 5.44829 4.10679V0.45631H0V37.9966H5.44829V24.0967C7.56612 26.7117 10.7941 28.2561 14.227 28.2561C17.7966 28.2561 21.1441 26.7994 23.6548 24.1318C26.1825 21.4641 27.566 17.9014 27.566 14.0929C27.566 10.3547 26.1825 6.8271 23.6548 4.15944C21.11 1.47423 17.7625 0 14.227 0ZM14.1758 5.01941C19.0263 5.01941 22.8179 8.98579 22.8179 14.0403C22.8179 19.0773 18.9409 23.1665 14.1758 23.1665C9.35944 23.1665 5.44829 19.0773 5.44829 14.0403C5.43121 9.16129 9.42776 5.01941 14.1758 5.01941Z" fill="white"></path><path d="M49.7034 19.4809C47.9955 21.7625 45.092 23.184 42.1031 23.184C37.8162 23.184 34.537 20.4111 33.8709 16.2516H55.6982L55.7153 16.0059C55.8178 14.7599 55.7324 13.1979 55.4933 11.9343C54.998 8.65233 53.3925 5.63367 50.9673 3.43987C48.5078 1.22853 45.3653 0 42.1031 0C34.5541 0 28.4226 6.33568 28.4226 14.1105C28.4226 17.8838 29.8231 21.429 32.3679 24.0967C34.9469 26.7819 38.3969 28.2736 42.086 28.2736C47.2952 28.2736 52.4019 25.255 54.5027 20.92L49.7034 19.4809ZM33.8709 11.7587C34.6053 7.84502 38.0041 5.03696 42.0519 5.03696C46.0655 5.03696 49.3447 7.79237 50.1304 11.7587H33.8709Z" fill="white"></path><path d="M78.8743 2.96601C76.8077 1.05302 74.0238 0 71.0349 0C67.6874 0 64.6985 1.43913 62.7002 3.98394V0.45631H57.252V27.8524H62.7002V13.8121C62.7002 8.75764 65.8087 5.07206 70.0956 5.07206C73.3406 5.07206 76.8419 7.45891 76.8419 12.6889V27.87H82.2902V11.2147C82.2902 7.88012 81.1117 5.01941 78.8743 2.96601Z" fill="white"></path><path d="M106.508 2.96601C104.442 1.05302 101.658 0 98.669 0C95.3214 0 92.3326 1.43913 90.3343 3.98394V0.45631H84.886V27.8524H90.3343V13.8121C90.3343 8.75764 93.4427 5.07206 97.7296 5.07206C100.975 5.07206 104.476 7.45891 104.476 12.6889V27.87H109.924V11.2147C109.924 7.88012 108.746 5.01941 106.508 2.96601Z" fill="white"></path><path d="M130.313 0.459961L122.695 21.187L114.634 0.459961H108.929L119.997 27.5051L115.812 38.0002H121.397L136 0.459961H130.313Z" fill="white"></path><path d="M125.719 34.3989C125.719 32.3997 127.235 30.8525 129.181 30.8525C131.162 30.8525 132.73 32.3823 132.73 34.3989C132.73 36.398 131.162 37.9452 129.181 37.9452C127.235 37.9278 125.719 36.398 125.719 34.3989Z" fill="#FFB300"></path></svg>